<?xml version="1.0" encoding="UTF-8"?>
<svg version="1.1" xmlns="http://www.w3.org/2000/svg" width="1200" height="1170">
<path d="M0 0 C1.39425117 -0.00195574 2.7885018 -0.00434565 4.18275157 -0.00712797 C8.01216483 -0.01350341 11.84155705 -0.01369156 15.67097461 -0.01285056 C19.83815146 -0.01302055 24.00532088 -0.01893218 28.17249399 -0.02409142 C36.43702011 -0.03340565 44.70154087 -0.03733749 52.96607158 -0.03961039 C62.866224 -0.04257559 72.76636934 -0.05127496 82.66651803 -0.06002467 C106.59726982 -0.0808587 130.52802283 -0.09133783 154.45878157 -0.10015428 C165.7847413 -0.10436289 177.11070049 -0.10958464 188.43665977 -0.11483881 C227.22212285 -0.13272947 266.00758609 -0.14772393 304.79305267 -0.155159 C307.22761235 -0.15563375 309.66217202 -0.15610964 312.0967317 -0.15658666 C313.30403233 -0.15682303 314.51133296 -0.15705941 315.75521846 -0.15730295 C321.87180103 -0.15850412 327.9883836 -0.15971958 334.10496616 -0.16094494 C335.31881209 -0.16118509 336.53265801 -0.16142524 337.78328715 -0.16167267 C377.11889639 -0.16956158 416.45447543 -0.19298478 455.79007149 -0.22550088 C497.39680274 -0.25983144 539.00351633 -0.27951319 580.61026198 -0.28280324 C585.18168867 -0.28322076 589.75311536 -0.28370032 594.32454205 -0.28422642 C595.45012134 -0.28434961 596.57570063 -0.2844728 597.73538838 -0.28459973 C615.8178187 -0.28692789 633.90021386 -0.30256653 651.98263166 -0.32306826 C670.17528333 -0.34336694 688.36789295 -0.34878451 706.56055384 -0.33929763 C717.35528322 -0.33409816 728.14987217 -0.33988632 738.94458123 -0.3618323 C746.17290732 -0.3754111 753.40113752 -0.37420139 760.62946472 -0.36143034 C764.73655051 -0.35458041 768.84336923 -0.35370109 772.95043039 -0.37099043 C823.17296236 -0.56911001 869.75063413 11.36919998 910.22142124 42.13422108 C911.16243687 42.84320545 912.10345249 43.55218983 913.07298374 44.28265858 C919.79797121 49.51320439 926.02810821 55.2943308 932.22142124 61.13422108 C933.39704624 62.22863514 933.39704624 62.22863514 934.59642124 63.34515858 C941.2113321 69.70019794 946.71977191 76.82297413 952.22142124 84.13422108 C952.65100132 84.69770252 953.0805814 85.26118397 953.52317905 85.84174061 C960.77418524 95.39531805 966.68000693 105.50871725 972.22142124 116.13422108 C973.14567905 117.88218983 973.14567905 117.88218983 974.08860874 119.66547108 C987.22049258 146.05026995 994.39112925 176.02522539 994.35564232 205.44427872 C994.35759826 206.78736708 994.35998825 208.13045486 994.36277029 209.47354177 C994.36914315 213.16089973 994.36933409 216.84823582 994.36849288 220.53559823 C994.36866292 224.54878461 994.37457513 228.56196328 994.37973374 232.57514578 C994.3890464 240.53359738 994.39297954 248.49204342 994.39525271 256.45049979 C994.39821833 265.98431779 994.40691794 275.51812843 994.41566699 285.05194256 C994.43649944 308.09714632 994.44697995 331.14235135 994.4557966 354.18756233 C994.46000548 365.09495535 994.4652272 376.00234781 994.47048112 386.90974036 C994.48837175 424.26359552 994.50336606 461.61745085 994.51080132 498.97130966 C994.51127607 501.31594172 994.51175196 503.66057378 994.51222898 506.00520584 C994.51258354 507.74926004 994.51258354 507.74926004 994.51294527 509.52854766 C994.51414644 515.4191595 994.5153619 521.30977135 994.51658726 527.20038319 C994.51682741 528.36938383 994.51706756 529.53838448 994.51731498 530.74280938 C994.52520353 568.62336489 994.54862597 606.50388905 994.5811432 644.38443087 C994.61547682 684.4543052 994.6351558 724.52416119 994.63844556 764.59405047 C994.63886308 768.99696768 994.63934264 773.39988488 994.63986874 777.80280209 C994.63999193 778.88688686 994.64011512 779.97097164 994.64024204 781.08790747 C994.64256984 798.50085855 994.65820642 815.9137731 994.67871058 833.32671119 C994.69901327 850.8472388 994.70442495 868.36772274 994.69493995 885.88825994 C994.68974201 896.28307011 994.6955213 906.6777344 994.71747462 917.07252344 C994.73105982 924.03427443 994.72983817 930.99592589 994.71707266 937.95767804 C994.71022689 941.91251132 994.70932857 945.86706734 994.72663275 949.82187497 C994.83283814 975.72852194 992.50351258 1000.44484088 984.22142124 1025.13422108 C983.93814976 1025.98258533 983.65487827 1026.83094959 983.3630228 1027.70502186 C976.13293736 1048.88797384 965.81608679 1068.36473622 952.22142124 1086.13422108 C951.51372593 1087.07265858 950.80603062 1088.01109608 950.07688999 1088.97797108 C944.84834867 1095.7079876 939.06313266 1101.93897669 933.22142124 1108.13422108 C932.49181187 1108.91797108 931.76220249 1109.70172108 931.01048374 1110.50922108 C924.65544438 1117.12413194 917.53266819 1122.63257174 910.22142124 1128.13422108 C909.6579398 1128.56380116 909.09445835 1128.99338123 908.51390171 1129.43597889 C898.96032427 1136.68698508 888.84692507 1142.59280677 878.22142124 1148.13422108 C876.47345249 1149.05847889 876.47345249 1149.05847889 874.69017124 1150.00140858 C848.12295085 1163.22408478 818.04967251 1170.30281067 788.44284248 1170.26844215 C787.04859131 1170.27039789 785.65434069 1170.2727878 784.26009092 1170.27557012 C780.43067765 1170.28194556 776.60128543 1170.28213372 772.77186788 1170.28129272 C768.60469103 1170.2814627 764.4375216 1170.28737434 760.27034849 1170.29253358 C752.00582237 1170.3018478 743.74130161 1170.30577964 735.4767709 1170.30805254 C725.57661848 1170.31101775 715.67647315 1170.31971712 705.77632445 1170.32846682 C681.84557266 1170.34930086 657.91481965 1170.35977999 633.98406091 1170.36859643 C622.65810119 1170.37280504 611.33214199 1170.37802679 600.00618271 1170.38328096 C561.22071963 1170.40117162 522.4352564 1170.41616608 483.64978981 1170.42360115 C481.21523014 1170.4240759 478.78067046 1170.42455179 476.34611079 1170.42502881 C475.13881016 1170.42526519 473.93150952 1170.42550156 472.68762403 1170.4257451 C466.57104145 1170.42694628 460.45445889 1170.42816173 454.33787632 1170.42938709 C452.51710743 1170.42974732 452.51710743 1170.42974732 450.65955533 1170.43011482 C411.3239461 1170.43800374 371.98836705 1170.46142693 332.65277099 1170.49394304 C291.04603974 1170.52827359 249.43932615 1170.54795535 207.83258051 1170.55124539 C203.26115381 1170.55166291 198.68972712 1170.55214247 194.11830044 1170.55266857 C192.4299315 1170.55285336 192.4299315 1170.55285336 190.7074541 1170.55304188 C172.62502378 1170.55537004 154.54262863 1170.57100869 136.46021082 1170.59151042 C118.26755915 1170.61180909 100.07494954 1170.61722666 81.88228864 1170.60773978 C71.08755926 1170.60254032 60.29297031 1170.60832848 49.49826126 1170.63027446 C42.26993516 1170.64385325 35.04170497 1170.64264354 27.81337776 1170.6298725 C23.70629198 1170.62302257 19.59947325 1170.62214324 15.4924121 1170.63943259 C-10.7344645 1170.74288279 -35.75768818 1168.52751809 -60.77857876 1160.13422108 C-61.62694302 1159.85094959 -62.47530727 1159.56767811 -63.34937954 1159.27582264 C-84.53233152 1152.0457372 -104.0090939 1141.72888662 -121.77857876 1128.13422108 C-122.71701626 1127.42652576 -123.65545376 1126.71883045 -124.62232876 1125.98968983 C-131.35234528 1120.76114851 -137.58333437 1114.9759325 -143.77857876 1109.13422108 C-144.56232876 1108.4046117 -145.34607876 1107.67500233 -146.15357876 1106.92328358 C-152.76848962 1100.56824421 -158.27692943 1093.44546803 -163.77857876 1086.13422108 C-164.20815884 1085.57073963 -164.63773891 1085.00725819 -165.08033657 1084.42670155 C-172.33134276 1074.87312411 -178.23716445 1064.7597249 -183.77857876 1054.13422108 C-184.70283657 1052.38625233 -184.70283657 1052.38625233 -185.64576626 1050.60297108 C-198.7776501 1024.21817221 -205.94828676 994.24321676 -205.91279984 964.82416344 C-205.91475578 963.48107508 -205.91714577 962.13798729 -205.91992781 960.79490039 C-205.92630067 957.10754243 -205.92649161 953.42020634 -205.9256504 949.73284393 C-205.92582044 945.71965755 -205.93173265 941.70647887 -205.93689126 937.69329637 C-205.94620392 929.73484477 -205.95013706 921.77639873 -205.95241022 913.81794236 C-205.95537584 904.28412437 -205.96407546 894.75031373 -205.9728245 885.2164996 C-205.99365696 862.17129584 -206.00413747 839.1260908 -206.01295411 816.08087982 C-206.017163 805.17348681 -206.02238471 794.26609435 -206.02763864 783.3587018 C-206.04552927 746.00484663 -206.06052357 708.6509913 -206.06795883 671.29713249 C-206.06843359 668.95250043 -206.06890947 666.60786837 -206.06938649 664.26323631 C-206.06962287 663.10053351 -206.06985925 661.93783071 -206.07010279 660.73989449 C-206.07130396 654.84928265 -206.07251941 648.95867081 -206.07374477 643.06805897 C-206.07398492 641.89905832 -206.07422507 640.73005768 -206.0744725 639.52563277 C-206.08236105 601.64507726 -206.10578349 563.76455311 -206.13830072 525.88401128 C-206.17263434 485.81413695 -206.19231332 445.74428096 -206.19560307 405.67439169 C-206.19602059 401.27147447 -206.19650015 396.86855727 -206.19702625 392.46564007 C-206.19714944 391.38155529 -206.19727264 390.29747052 -206.19739956 389.18053469 C-206.19972735 371.7675836 -206.21536393 354.35466905 -206.2358681 336.94173097 C-206.25617078 319.42120336 -206.26158246 301.90071941 -206.25209747 284.38018221 C-206.24689953 273.98537205 -206.25267881 263.59070775 -206.27463214 253.19591871 C-206.28821734 246.23416772 -206.28699569 239.27251627 -206.27423018 232.31076411 C-206.26738441 228.35593084 -206.26648609 224.40137481 -206.28379027 220.44656719 C-206.38999565 194.53992021 -204.06067009 169.82360127 -195.77857876 145.13422108 C-195.49530727 144.28585682 -195.21203579 143.43749256 -194.92018032 142.5634203 C-187.69009488 121.38046831 -177.3732443 101.90370593 -163.77857876 84.13422108 C-163.07088345 83.19578358 -162.36318813 82.25734608 -161.63404751 81.29047108 C-156.40550619 74.56045455 -150.62029018 68.32946547 -144.77857876 62.13422108 C-144.04896938 61.35047108 -143.31936001 60.56672108 -142.56764126 59.75922108 C-136.2126019 53.14431022 -129.08982571 47.63587041 -121.77857876 42.13422108 C-121.21509731 41.704641 -120.65161587 41.27506092 -120.07105923 40.83246326 C-110.51748179 33.58145708 -100.40408258 27.67563539 -89.77857876 22.13422108 C-88.03061001 21.20996326 -88.03061001 21.20996326 -86.24732876 20.26703358 C-59.68010837 7.04435738 -29.60683002 -0.03436852 0 0 Z " fill="#001E36" transform="translate(205.77857875823975,-0.13422107696533203)"/>
<path d="M0 0 C14.1584232 -0.16440872 28.31629015 -0.2709662 42.47555542 -0.32331467 C45.24546114 -0.33611948 48.01522637 -0.35607171 50.78507233 -0.37815094 C73.76076753 -0.55021017 95.99200418 0.58802706 118.72446442 4.03868866 C119.70692642 4.18500229 120.68938843 4.33131592 121.70162201 4.48206329 C143.9314734 7.84722368 167.18333976 15.92165308 186.72446442 27.03868866 C187.92236429 27.68047936 189.12161 28.31976374 190.32212067 28.95665741 C202.76361373 35.66705427 213.48327162 44.33650601 223.72446442 54.03868866 C225.15919098 55.37673553 225.15919098 55.37673553 226.62290192 56.74181366 C238.88603724 68.41022855 248.05582712 82.00332893 255.72446442 97.03868866 C256.0710611 97.71174042 256.41765778 98.38479218 256.77475739 99.07823944 C263.52262133 112.43767886 267.33703387 126.50864314 270.72446442 141.03868866 C270.91943512 141.84290253 271.11440582 142.64711639 271.31528473 143.47570038 C276.52402784 165.74979974 275.50306125 192.58287709 271.72446442 215.03868866 C271.60619293 215.77651581 271.48792145 216.51434296 271.36606598 217.2745285 C267.10158584 242.91023924 257.19794688 268.73803351 240.72446442 289.03868866 C240.07606598 289.88689178 239.42766754 290.73509491 238.75962067 291.60900116 C206.43426477 332.90358988 157.58251419 353.05154996 106.62387848 359.89586639 C85.95578036 362.40756529 65.43595479 362.40065698 44.64823151 362.24468231 C40.01418066 362.21336208 35.38007614 362.2001601 30.74594879 362.18517303 C21.73865261 362.15350311 12.73158525 362.1026691 3.72446442 362.03868866 C3.7272298 362.88113538 3.72999517 363.7235821 3.73284435 364.5915575 C3.79904119 385.07171179 3.84871427 405.55184769 3.87990093 426.03208637 C3.89538268 435.93610026 3.91649712 445.84004282 3.95078278 455.74401093 C3.98064517 464.37434726 4.0000299 473.00463196 4.0067299 481.63501853 C4.01064753 486.20653308 4.01988152 490.77789986 4.04165459 495.34936714 C4.06196989 499.64947627 4.06830831 503.94937632 4.06378746 508.24952888 C4.06461489 509.83019902 4.07061006 511.41087593 4.08208084 512.99150467 C4.0969479 515.14521276 4.09343988 517.29812543 4.08522797 519.45185089 C4.08799335 520.65847791 4.09075872 521.86510492 4.0936079 523.10829639 C3.72446442 526.03868866 3.72446442 526.03868866 2.46522236 527.92613602 C0.31812778 529.2983864 -0.94718054 529.41808597 -3.48842621 529.42636871 C-4.77547455 529.44122566 -4.77547455 529.44122566 -6.08852386 529.45638275 C-7.02680023 529.4518811 -7.9650766 529.44737946 -8.93178558 529.44274139 C-9.92226898 529.44960464 -10.91275238 529.4564679 -11.93325043 529.46353912 C-15.21415709 529.48187211 -18.49458859 529.47796062 -21.77553558 529.47228241 C-24.0509278 529.47684078 -26.32631864 529.48214532 -28.60170746 529.48816681 C-33.37324869 529.49711048 -38.14462266 529.49466008 -42.91616058 529.48473358 C-49.04003505 529.47323707 -55.1633335 529.49345994 -61.28713226 529.52265072 C-65.98651057 529.5409686 -70.68574969 529.54072915 -75.38515472 529.5350132 C-77.64346373 529.53485947 -79.90178187 529.54094595 -82.16005707 529.55330467 C-85.31350443 529.56813092 -88.46587271 529.55759919 -91.61928558 529.54039764 C-92.55756195 529.55006561 -93.49583832 529.55973358 -94.4625473 529.56969452 C-95.32057953 529.55986038 -96.17861176 529.55002625 -97.06264496 529.5398941 C-97.8081662 529.53968482 -98.55368744 529.53947554 -99.32180023 529.53925991 C-101.27553558 529.03868866 -101.27553558 529.03868866 -102.87404883 527.54520571 C-104.89475516 523.931233 -104.6874773 520.46639433 -104.65305901 516.43384457 C-104.65741933 515.55217366 -104.66177965 514.67050276 -104.6662721 513.76211455 C-104.67728211 510.78680503 -104.66677959 507.81195372 -104.65648651 504.83664703 C-104.65994079 502.69043427 -104.66470381 500.54422329 -104.67066824 498.39801604 C-104.68323927 492.48397897 -104.67698019 486.57008637 -104.66770959 480.65604866 C-104.66094439 474.28448542 -104.6713877 467.91294769 -104.67964935 461.54138947 C-104.69224251 449.77573521 -104.69111724 438.0101326 -104.68291495 426.24447581 C-104.6753756 415.37676281 -104.67339476 404.50906678 -104.67698288 393.6413517 C-104.67721203 392.92116171 -104.67744119 392.20097171 -104.67767729 391.45895778 C-104.67861127 388.53566416 -104.67956646 385.61237054 -104.68055658 382.68907693 C-104.68973833 355.25366159 -104.6814055 327.81827575 -104.66526589 300.38286496 C-104.65102703 275.99297725 -104.65230368 251.60313651 -104.66664886 227.21324921 C-104.68270228 199.8272953 -104.68908874 172.44136745 -104.67981207 145.05540949 C-104.67884988 142.13767628 -104.67791136 139.21994307 -104.67698288 136.30220985 C-104.67674565 135.58375987 -104.67650842 134.8653099 -104.67626399 134.1250887 C-104.67284739 123.26188456 -104.67685015 112.39869921 -104.68442154 101.53549767 C-104.69298446 89.18792498 -104.69059665 76.84041571 -104.67457931 64.49284857 C-104.66667105 58.18776241 -104.66364834 51.88277185 -104.67352676 45.57768631 C-104.68242138 39.81355437 -104.67762778 34.04960726 -104.66159411 28.28549225 C-104.65822401 26.19270739 -104.65998985 24.09990713 -104.66722147 22.00713205 C-104.67625571 19.17709198 -104.66707797 16.34769713 -104.65305901 13.51769161 C-104.6600825 12.69245641 -104.667106 11.86722122 -104.67434233 11.01697889 C-104.61904493 5.48695613 -104.61904493 5.48695613 -102.96967826 3.33459136 C-100.13058115 1.16287722 -96.79028155 1.55005018 -93.35121918 1.51451874 C-92.12847841 1.4846264 -92.12847841 1.4846264 -90.8810358 1.45413017 C-88.14544849 1.39116171 -85.40996648 1.34957159 -82.67397308 1.30821991 C-80.72388243 1.2684817 -78.77381421 1.22762887 -76.82376862 1.18573761 C-71.53570321 1.07674402 -66.24748125 0.98782231 -60.95895767 0.90435791 C-57.65369699 0.85123947 -54.34854656 0.79356089 -51.04338837 0.73442841 C-34.0295778 0.43173487 -17.01528638 0.20097435 0 0 Z " fill="#30A7FE" transform="translate(374.2755355834961,297.96131134033203)"/>
<path d="M0 0 C1.70289185 0.00223572 1.70289185 0.00223572 3.44018555 0.0045166 C20.57439087 0.04487916 37.37465496 0.514411 54.3125 3.3125 C55.21613281 3.45703613 56.11976563 3.60157227 57.05078125 3.75048828 C72.40104856 6.28732785 91.24622205 9.40807355 104.3125 18.3125 C105.95605419 21.59960839 105.45971158 25.24827649 105.45776367 28.86132812 C105.46280159 30.18830971 105.46280159 30.18830971 105.46794128 31.542099 C105.47746605 34.47599682 105.47939505 37.40983767 105.48046875 40.34375 C105.48367986 42.37634302 105.48704381 44.4089358 105.49055481 46.44152832 C105.49654961 50.70532772 105.49839431 54.96910684 105.49780273 59.23291016 C105.497701 64.70768732 105.51136358 70.18233513 105.52857494 75.6570816 C105.53966919 79.85541384 105.54172275 84.05371453 105.54119301 88.25205994 C105.54237662 90.27115831 105.5468196 92.29025741 105.55452538 94.30934143 C105.56427506 97.12754503 105.56146741 99.94546412 105.55541992 102.76367188 C105.56103943 103.60425644 105.56665894 104.444841 105.57244873 105.31089783 C105.54081647 111.08418353 105.54081647 111.08418353 103.3125 113.3125 C96.28839819 114.38397316 91.9213597 112.41829042 85.65185547 109.29956055 C51.0088298 92.33197792 -2.3296325 81.96929627 -40.22265625 93.046875 C-47.68299223 95.77195827 -52.92508436 99.25797067 -56.6875 106.3125 C-58.70903004 112.37709011 -58.82169352 119.74759105 -56.125 125.625 C-48.56445441 138.26936072 -33.5759228 144.72130091 -20.6875 150.625 C-19.79892303 151.03611526 -19.79892303 151.03611526 -18.89239502 151.45553589 C-9.75995916 155.67154152 -0.50078569 159.38815182 8.9375 162.875 C50.36140758 178.1959051 96.18919829 199.40662356 117.06640625 240.7890625 C130.85186969 271.40039233 129.09380592 305.55411139 117.45654297 336.48486328 C113.11844394 347.20698513 106.95154285 356.65204087 99.3125 365.3125 C98.57644531 366.19164062 97.84039063 367.07078125 97.08203125 367.9765625 C70.24791174 399.05686405 27.18822519 411.91042077 -12.46328735 415.10108948 C-17.59883796 415.43782578 -22.72575657 415.51363918 -27.87109375 415.55078125 C-28.99696396 415.56052979 -30.12283417 415.57027832 -31.28282166 415.58032227 C-76.29450149 415.8903294 -76.29450149 415.8903294 -96.64892578 411.90673828 C-99.79895015 411.29070427 -102.9563005 410.74939524 -106.12109375 410.21484375 C-149.88011771 402.50851727 -149.88011771 402.50851727 -162.29486084 390.79606628 C-164.41972515 387.00668457 -164.08909245 383.42766601 -164.04394531 379.15356445 C-164.04598969 378.22799744 -164.04803406 377.30243042 -164.05014038 376.34881592 C-164.0531475 373.29093647 -164.03467641 370.23359656 -164.015625 367.17578125 C-164.01256778 365.0539717 -164.01069138 362.93216014 -164.00994873 360.81034851 C-164.00534645 356.36591908 -163.99092062 351.92167093 -163.96875 347.47729492 C-163.94041608 341.76709311 -163.92953331 336.05703382 -163.9250679 330.34676838 C-163.9209214 325.96746889 -163.91111123 321.58819849 -163.89919281 317.2089138 C-163.89347817 315.10247215 -163.88872344 312.99602767 -163.88492584 310.88958168 C-163.87808815 307.95408779 -163.86446907 305.01870932 -163.84863281 302.08325195 C-163.84751495 301.20481125 -163.84639709 300.32637054 -163.84524536 299.42131042 C-163.80218883 293.42718883 -163.80218883 293.42718883 -162.6875 292.3125 C-156.53910017 292.62230309 -152.33955108 294.86287301 -147.0625 297.875 C-140.14582157 301.66722428 -133.19607122 304.90839649 -125.8125 307.6875 C-124.99442871 307.99631104 -124.17635742 308.30512207 -123.33349609 308.62329102 C-112.17198713 312.72296063 -100.86202794 315.9017712 -89.25 318.4375 C-88.13818359 318.68886719 -87.02636719 318.94023438 -85.88085938 319.19921875 C-70.95990475 322.49580907 -56.87817618 323.66106801 -41.63720703 323.62817383 C-38.56116754 323.62499862 -35.48607867 323.64860762 -32.41015625 323.67382812 C-22.46367722 323.70605089 -13.18988572 323.63259833 -3.6875 320.3125 C-1.92986328 319.76529297 -1.92986328 319.76529297 -0.13671875 319.20703125 C7.90523962 316.05622154 12.97912242 312.18215757 16.75 304.3125 C17.99701956 297.661729 17.91765414 292.18375103 14.3125 286.3125 C1.74791455 268.72208037 -21.92390169 261.85268697 -41.28109741 254.47598267 C-72.71559772 242.49369119 -103.58496011 228.13299081 -128.6875 205.3125 C-129.409375 204.673125 -130.13125 204.03375 -130.875 203.375 C-147.79621441 187.54547684 -161.64860357 162.04884767 -162.87646484 138.72265625 C-162.94233433 135.34611063 -162.96872387 131.97706184 -162.94824219 128.6003418 C-162.93757089 126.5138609 -162.9481658 124.42825091 -162.9609375 122.34179688 C-162.99711677 93.23062275 -152.64487645 66.50041631 -132.6875 45.3125 C-131.81351563 44.35859375 -130.93953125 43.4046875 -130.0390625 42.421875 C-113.87174495 25.44856215 -92.11032976 13.76263329 -69.6875 7.3125 C-68.8944043 7.08336914 -68.10130859 6.85423828 -67.28417969 6.61816406 C-57.65653813 3.91823036 -48.0819815 2.01747679 -38.11328125 1.19140625 C-36.63712593 1.06727104 -36.63712593 1.06727104 -35.13114929 0.94062805 C-23.42788992 0.03531992 -11.73242307 -0.03831874 0 0 Z " fill="#30A7FE" transform="translate(865.6875,421.6875)"/>
<path d="M0 0 C0.68163712 -0.0049649 1.36327423 -0.00992981 2.06556702 -0.01504517 C4.33880615 -0.02973435 6.61197493 -0.0364888 8.88525391 -0.04199219 C10.47498576 -0.04774922 12.06471761 -0.05350688 13.65444946 -0.05926514 C17.0054761 -0.0698017 20.35647864 -0.07562331 23.70751953 -0.07910156 C27.11160217 -0.08344936 30.51542608 -0.09718791 33.91943359 -0.12011719 C77.02205227 -0.40446256 77.02205227 -0.40446256 97.98681641 6.97363281 C99.43701172 7.45026367 99.43701172 7.45026367 100.91650391 7.93652344 C120.17009749 14.50494109 135.42476569 26.65652224 144.79931641 44.84863281 C155.20007088 66.34403188 155.89795904 93.48497434 148.23291016 116.12988281 C140.6887909 135.04157142 125.54901201 149.08282494 107.30322266 157.65722656 C104.06267188 158.95587425 100.8068249 160.08222469 97.48681641 161.16113281 C96.28412109 161.58007812 95.08142578 161.99902344 93.84228516 162.43066406 C70.90406356 170.08353396 46.93374331 170.7486578 22.98681641 170.47363281 C20.34099019 170.46209956 17.69515569 170.45232695 15.04931641 170.44433594 C12.53889078 170.43094841 10.0284727 170.41603577 7.51806641 170.39941406 C6.34957153 170.39202713 5.18107666 170.3846402 3.97717285 170.37702942 C2.90334351 170.36419418 1.82951416 170.35135895 0.72314453 170.33813477 C-0.21911987 170.32829056 -1.16138428 170.31844635 -2.13220215 170.30830383 C-4.51318359 170.16113281 -4.51318359 170.16113281 -7.51318359 169.16113281 C-7.5365104 147.27392617 -7.55416169 125.38672158 -7.56499577 103.49950504 C-7.57015919 93.33763782 -7.57720277 83.1757783 -7.58862305 73.01391602 C-7.59856847 64.16019655 -7.60503668 55.30648267 -7.60727209 46.45275778 C-7.60857944 41.76175746 -7.6116668 37.07077312 -7.61891365 32.37977791 C-7.62567164 27.96974029 -7.62780101 23.55972531 -7.62629128 19.149683 C-7.6265677 17.52625658 -7.62857414 15.90282946 -7.63238907 14.2794075 C-7.63732287 12.07268231 -7.63618306 9.86604398 -7.63343811 7.65931702 C-7.6343599 6.42134904 -7.6352817 5.18338106 -7.63623142 3.9078989 C-7.40536906 -1.24558427 -4.53840557 0.02504488 0 0 Z " fill="#001E36" transform="translate(386.51318359375,395.8388671875)"/>
</svg>
