<svg version="1.0" xmlns="http://www.w3.org/2000/svg"
 width="180.000000pt" height="180.000000pt" viewBox="0 0 180.000000 180.000000"
 preserveAspectRatio="xMidYMid meet">

<g transform="translate(0.000000,180.000000) scale(0.100000,-0.100000)"
 fill="none" stroke="#fff" stroke-width="70">
    <path d="M156 1785 c-75 -27 -126 -81 -146 -156 -7 -25 -10 -287 -8 -751 3
    -708 3 -713 25 -753 24 -46 54 -75 103 -101 33 -18 72 -19 770 -19 733 0 735
    0 775 22 46 24 75 54 101 103 18 33 19 72 19 770 0 698 -1 737 -19 770 -26 49
    -55 79 -101 103 -40 22 -44 22 -760 24 -600 2 -727 0 -759 -12z m1244 -311 c0
    -3 -71 -117 -158 -252 -87 -136 -183 -285 -212 -331 -63 -98 -58 -102 -92 79
    l-23 125 -295 5 -295 5 60 22 c33 12 173 60 310 108 255 88 345 120 565 198
    137 49 140 50 140 41z m-541 -634 c13 -69 26 -128 30 -132 3 -4 137 -9 296
    -10 l290 -3 -110 -38 c-60 -21 -154 -54 -207 -73 -54 -19 -143 -50 -198 -69
    -55 -19 -144 -50 -197 -69 -276 -97 -358 -124 -362 -121 -2 2 92 153 209 336
    137 213 216 326 220 317 4 -7 17 -69 29 -138z"/>
</g>
</svg>
